# xmcd
#
# Track frame offsets:
#   150
#   13660
#   27245
#   41447
#   52425
#   68785
#   82207
#   99027
#   119035
#   133117
#   146082
#   159980
#   184967
#   202900
#   221425
#
# Disc length: 3191 seconds
#
# Revision: 0
# Processed by: cddbd v1.5.2PL0 Copyright (c) Steve Scherf et al.
# Submitted via: uFREEDB ActiveX Control 1.5
#
DISCID=dc0c750f
DTITLE=Zé Mineiro e Paulistano - Os Filhos de Minas
DYEAR=1900
DGENRE=Country
TTITLE0=A morena e a Cervja
TTITLE1=Casa e Comida
TTITLE2=Quero Ver Pedindo Água Pra Min
TTITLE3=Meus Ideais
TTITLE4=Recordação
TTITLE5=Você Me Faz Bem Minha Querida
TTITLE6=Pirangueiro
TTITLE7=Homenagem ao Rei do Pagode
TTITLE8=Tive a Vida de Prazer
TTITLE9=Maldito Coração de Pedra
TTITLE10=Os Filhos de Minas
TTITLE11=Morena do Saveiro
TTITLE12=Fruto Proibido
TTITLE13=Sertanejo Nato
TTITLE14=Não Nascemos Para Amar
EXTD=
EXTT0=
EXTT1=
EXTT2=
EXTT3=
EXTT4=
EXTT5=
EXTT6=
EXTT7=
EXTT8=
EXTT9=
EXTT10=
EXTT11=
EXTT12=
EXTT13=
EXTT14=
PLAYORDER=
